<mxfile host="app.diagrams.net" agent="Mozilla/5.0 (Windows NT 10.0; Win64; x64) AppleWebKit/537.36 (KHTML, like Gecko) Chrome/129.0.0.0 Safari/537.36" version="24.7.17">
  <diagram name="Halaman-1" id="i84QCJt9rLugw1j3BT0l">
    <mxGraphModel dx="1750" dy="928" grid="1" gridSize="10" guides="1" tooltips="1" connect="1" arrows="1" fold="1" page="1" pageScale="1" pageWidth="850" pageHeight="1100" math="0" shadow="0">
      <root>
        <mxCell id="0" />
        <mxCell id="1" parent="0" />
        <mxCell id="JNMpEH79BWN4epBnPVUM-1" value="&lt;b&gt;&lt;font face=&quot;Times New Roman&quot;&gt;START&lt;/font&gt;&lt;/b&gt;" style="rounded=1;whiteSpace=wrap;html=1;fontStyle=4;fontFamily=Verdana;" vertex="1" parent="1">
          <mxGeometry x="358" y="20" width="120" height="60" as="geometry" />
        </mxCell>
        <mxCell id="JNMpEH79BWN4epBnPVUM-3" value="" style="endArrow=classic;html=1;rounded=0;entryX=0.5;entryY=0;entryDx=0;entryDy=0;entryPerimeter=0;" edge="1" parent="1" source="JNMpEH79BWN4epBnPVUM-1">
          <mxGeometry width="50" height="50" relative="1" as="geometry">
            <mxPoint x="430" y="140" as="sourcePoint" />
            <mxPoint x="418" y="120" as="targetPoint" />
          </mxGeometry>
        </mxCell>
        <mxCell id="JNMpEH79BWN4epBnPVUM-4" value="&lt;font face=&quot;Times New Roman&quot;&gt;Apakah Nilai &amp;gt; 9?&lt;/font&gt;" style="rhombus;whiteSpace=wrap;html=1;" vertex="1" parent="1">
          <mxGeometry x="361" y="480" width="114" height="110" as="geometry" />
        </mxCell>
        <mxCell id="JNMpEH79BWN4epBnPVUM-5" value="" style="endArrow=classic;html=1;rounded=0;exitX=0.5;exitY=1;exitDx=0;exitDy=0;entryX=0.5;entryY=0;entryDx=0;entryDy=0;" edge="1" parent="1" source="JNMpEH79BWN4epBnPVUM-4" target="JNMpEH79BWN4epBnPVUM-9">
          <mxGeometry width="50" height="50" relative="1" as="geometry">
            <mxPoint x="521" y="710" as="sourcePoint" />
            <mxPoint x="421" y="630" as="targetPoint" />
          </mxGeometry>
        </mxCell>
        <mxCell id="JNMpEH79BWN4epBnPVUM-6" value="" style="endArrow=classic;html=1;rounded=0;exitX=0.5;exitY=1;exitDx=0;exitDy=0;entryX=0.5;entryY=0;entryDx=0;entryDy=0;" edge="1" parent="1">
          <mxGeometry width="50" height="50" relative="1" as="geometry">
            <mxPoint x="418" y="200" as="sourcePoint" />
            <mxPoint x="418" y="230" as="targetPoint" />
          </mxGeometry>
        </mxCell>
        <mxCell id="JNMpEH79BWN4epBnPVUM-7" style="edgeStyle=orthogonalEdgeStyle;rounded=0;orthogonalLoop=1;jettySize=auto;html=1;entryX=0.5;entryY=0;entryDx=0;entryDy=0;" edge="1" parent="1" source="JNMpEH79BWN4epBnPVUM-8" target="JNMpEH79BWN4epBnPVUM-4">
          <mxGeometry relative="1" as="geometry" />
        </mxCell>
        <mxCell id="JNMpEH79BWN4epBnPVUM-8" value="&lt;font face=&quot;Times New Roman&quot;&gt;Nilai pada seven segment ditambah 1.&lt;/font&gt;" style="rounded=0;whiteSpace=wrap;html=1;" vertex="1" parent="1">
          <mxGeometry x="358" y="380" width="120" height="60" as="geometry" />
        </mxCell>
        <mxCell id="JNMpEH79BWN4epBnPVUM-9" value="&lt;b&gt;&lt;font face=&quot;Times New Roman&quot;&gt;end&lt;/font&gt;&lt;/b&gt;" style="rounded=1;whiteSpace=wrap;html=1;fontStyle=4;fontFamily=Verdana;" vertex="1" parent="1">
          <mxGeometry x="358" y="630" width="120" height="60" as="geometry" />
        </mxCell>
        <mxCell id="JNMpEH79BWN4epBnPVUM-10" value="&lt;font face=&quot;Times New Roman&quot;&gt;Angka pada seven segment ditampilkan sesuai dengan nilai yang ada.&lt;/font&gt;" style="strokeWidth=2;html=1;shape=mxgraph.flowchart.display;whiteSpace=wrap;" vertex="1" parent="1">
          <mxGeometry x="330" y="230" width="170" height="110" as="geometry" />
        </mxCell>
        <mxCell id="JNMpEH79BWN4epBnPVUM-11" value="" style="endArrow=classic;html=1;rounded=0;exitX=0.5;exitY=1;exitDx=0;exitDy=0;exitPerimeter=0;" edge="1" parent="1" source="JNMpEH79BWN4epBnPVUM-10" target="JNMpEH79BWN4epBnPVUM-8">
          <mxGeometry width="50" height="50" relative="1" as="geometry">
            <mxPoint x="390" y="420" as="sourcePoint" />
            <mxPoint x="440" y="370" as="targetPoint" />
          </mxGeometry>
        </mxCell>
        <mxCell id="JNMpEH79BWN4epBnPVUM-15" value="&lt;font face=&quot;Times New Roman&quot;&gt;Mengatur nilai awal pada seven segmen&amp;nbsp;&lt;/font&gt;&lt;div&gt;&lt;font face=&quot;lWtG1cyGPfQMQ6QU7JfC&quot;&gt;yaitu 0&lt;/font&gt;&lt;/div&gt;" style="shape=parallelogram;perimeter=parallelogramPerimeter;whiteSpace=wrap;html=1;fixedSize=1;" vertex="1" parent="1">
          <mxGeometry x="330" y="120" width="180" height="70" as="geometry" />
        </mxCell>
      </root>
    </mxGraphModel>
  </diagram>
</mxfile>
